{"title":"MTV Video Music Awards 2003 [TNT Village]","uid":14802581,"size":1465121574,"categoryP":"video","categoryS":"tv_shows","magnet":"?xt=urn:btih:d22f58e24187cc31d75209a3ff077104b0a54adc&amp;dn=MTV+Video+Music+Awards+2003+%5BTNT+Village%5D&amp;tr=udp%3A%2F%2Ftracker.leechers-paradise.org%3A6969&amp;tr=udp%3A%2F%2Fzer0day.ch%3A1337&amp;tr=udp%3A%2F%2Fopen.demonii.com%3A1337&amp;tr=udp%3A%2F%2Ftracker.coppersurfer.tk%3A6969&amp;tr=udp%3A%2F%2Fexodus.desync.com%3A6969","seeders":1,"leechers":0,"uploader":"assamestar","files":3,"time":1465137881,"description":"MTV Video Music Awards 2003 [TNT Village]\r\n\r\nMadonna, Britney Spears e Christina Aguilera in sexy dance ;)\r\n\r\n\r\n..:: Album Data :..\r\nArtist: Various\r\nFormat: avi\r\nCountry: USA\r\nReleased: 2003\r\nGenre: Pop\r\nStyle: Various\r\nCodec Video: MPEG-4 Video (XviD)\r\nCodec Audio: MP3 128 Kbps\r\n\r\nGeneral\r\nComplete name : MTV Video Music Awards 2003/MTV Video Music Awards 2003 (CD 1+2).avi\r\nFormat : AVI\r\nFormat/Info : Audio Video Interleave\r\nFormat settings : rec\r\nFile size : 699 MiB\r\nDuration : 1h 4mn\r\nOverall bit rate mode : Variable\r\nOverall bit rate : 1 510 Kbps\r\n\r\nVideo\r\nID : 0\r\nFormat : MPEG-4 Visual\r\nFormat settings, BVOP : No\r\nFormat settings, QPel : No\r\nFormat settings, GMC : No warppoints\r\nFormat settings, Matrix : Default (H.263)\r\nCodec ID : XVID\r\nCodec ID/Hint : XviD\r\nDuration : 1h 4mn\r\nBit rate : 1 376 Kbps\r\nWidth : 512 pixels\r\nHeight : 384 pixels\r\nDisplay aspect ratio : 4:3\r\nFrame rate : 29.970 fps\r\nColor space : YUV\r\nChroma subsampling : 4:2:0\r\nBit depth : 8 bits\r\nScan type : Progressive\r\nCompression mode : Lossy\r\nBits/(Pixel*Frame) : 0.234\r\nStream size : 637 MiB (91%)\r\n\r\nAudio\r\nID : 1\r\nFormat : MPEG Audio\r\nFormat version : Version 1\r\nFormat profile : Layer 3\r\nMode : Joint stereo\r\nMode extension : MS Stereo\r\nCodec ID : 55\r\nCodec ID/Hint : MP3\r\nDuration : 1h 4mn\r\nBit rate mode : Variable\r\nBit rate : 128 Kbps\r\nChannel(s) : 2 channels\r\nSampling rate : 48.0 KHz\r\nCompression mode : Lossy\r\nStream size : 57.6 MiB (8%)\r\nAlignment : Aligned on interleaves\r\nInterleave, duration : 24 ms (0.72 video frame)\r\nInterleave, preload duration : 521 ms\r\nWriting library : LAME3.92\r\nEncoding settings : -m j -V 4 -q 2 -lowpass 17.5 --abr 128","torrent":{"xt":"urn:btih:d22f58e24187cc31d75209a3ff077104b0a54adc","amp;dn":"MTV+Video+Music+Awards+2003+%5BTNT+Village%5D","amp;tr":["udp%3A%2F%2Ftracker.leechers-paradise.org%3A6969","udp%3A%2F%2Fzer0day.ch%3A1337","udp%3A%2F%2Fopen.demonii.com%3A1337","udp%3A%2F%2Ftracker.coppersurfer.tk%3A6969","udp%3A%2F%2Fexodus.desync.com%3A6969"],"infoHash":"d22f58e24187cc31d75209a3ff077104b0a54adc","infoHashBuffer":{"type":"Buffer","data":[210,47,88,226,65,135,204,49,215,82,9,163,255,7,113,4,176,165,74,220]},"announce":[],"urlList":[]}}